<?xml version="1.0" encoding="iso-8859-1"?>
<!-- Uploaded to: SVG Repo, www.svgrepo.com, Generator: SVG Repo Mixer Tools -->
<svg height="800px" width="800px" version="1.1" id="Layer_1" xmlns="http://www.w3.org/2000/svg" xmlns:xlink="http://www.w3.org/1999/xlink" 
	 viewBox="0 0 512 512" xml:space="preserve">
<g>
	<path style="fill:#71C386;" d="M499.037,43.39H377.546c-5.207,0-8.678-3.471-8.678-8.678s3.471-8.678,8.678-8.678h121.492
		c5.207,0,8.678,3.471,8.678,8.678S504.244,43.39,499.037,43.39"/>
	<path style="fill:#71C386;" d="M473.003,69.424c-2.603,0-4.339-0.868-6.075-2.603c-3.471-3.471-3.471-8.678,0-12.149l19.959-19.959
		l-19.959-19.959c-3.471-3.471-3.471-8.678,0-12.149s8.678-3.471,12.149,0l26.034,26.034c3.471,3.471,3.471,8.678,0,12.149
		L479.078,66.82C477.342,68.556,475.607,69.424,473.003,69.424"/>
</g>
<path style="fill:#FDC794;" d="M403.58,225.627c0-19.092-15.62-34.712-34.712-34.712c-19.092,0-34.712,15.62-34.712,34.712v-43.39
	c0-19.092-15.62-34.712-34.712-34.712s-34.712,15.62-34.712,34.712V43.39c0-19.092-15.62-34.712-34.712-34.712l0,0
	c-19.092,0-34.712,15.62-34.712,34.712v138.847V78.102c0-19.092-15.62-34.712-34.712-34.712l0,0
	c-19.092,0-34.712,15.62-34.712,34.712v190.915l-15.62-23.43c-17.356-30.373-59.01-44.258-86.78-33.844
	c-4.339,0.868-6.942,3.471-10.414,5.207c-10.414,6.942-8.678,14.753-8.678,17.356s49.464,52.936,78.102,104.136
	c0,0,25.166,41.654,52.068,69.424v26.034c0,43.39,34.712,78.102,78.102,78.102h86.78c33.844,0,68.556-28.637,76.366-61.614
	c1.736-7.81,5.207-19.092,10.414-25.166c7.81-8.678,17.356-30.373,17.356-60.746V225.627z"/>
<g>
	<path style="fill:#F9A671;" d="M134.563,295.051c-3.471,0-6.075-1.736-7.81-5.207l-8.678-17.356c-1.736-4.339,0-9.546,3.471-11.281
		c4.339-1.736,9.546,0,11.281,3.471l8.678,17.356c1.736,4.339,0,9.546-3.471,11.281
		C137.166,295.051,136.298,295.051,134.563,295.051"/>
	<path style="fill:#F9A671;" d="M195.308,295.051c-5.207,0-8.678-3.471-8.678-8.678V69.424c0-5.207,3.471-8.678,8.678-8.678
		c5.207,0,8.678,3.471,8.678,8.678v216.949C203.986,291.58,200.515,295.051,195.308,295.051"/>
	<path style="fill:#F9A671;" d="M264.732,286.373c-5.207,0-8.678-3.471-8.678-8.678V176.163c0-5.207,3.471-8.678,8.678-8.678
		c5.207,0,8.678,3.471,8.678,8.678v101.532C273.41,282.902,269.939,286.373,264.732,286.373"/>
	<path style="fill:#F9A671;" d="M334.156,295.051c-5.207,0-8.678-3.471-8.678-8.678v-66.82c0-5.207,3.471-8.678,8.678-8.678
		c5.207,0,8.678,3.471,8.678,8.678v66.82C342.834,291.58,339.363,295.051,334.156,295.051"/>
	<path style="fill:#F9A671;" d="M334.156,442.576c-3.471,0-7.81-2.603-8.678-6.075c-0.868-4.339,1.736-9.546,6.075-10.414
		c4.339-0.868,7.81-1.736,11.281-2.603c13.885-3.471,23.431-5.207,27.77-11.281c2.603-3.471,8.678-4.339,12.149-1.736
		c3.471,2.603,4.339,8.678,1.736,12.149c-7.81,11.281-20.827,13.885-37.315,18.224c-3.471,0.868-6.942,1.736-10.414,2.603
		C335.892,442.576,335.024,442.576,334.156,442.576"/>
	<path style="fill:#F9A671;" d="M177.953,442.576c-1.736,0-3.471-0.868-5.207-1.736c-5.207-4.339-9.546-6.942-14.753-11.281
		c-6.942-4.339-13.017-9.546-19.959-15.62c-3.471-3.471-3.471-8.678-0.868-12.149c3.471-3.471,8.678-3.471,12.149-0.868
		c6.075,5.207,12.149,9.546,18.224,13.885c5.207,3.471,10.414,6.942,15.62,12.149c3.471,3.471,4.339,8.678,0.868,12.149
		C183.159,441.708,180.556,442.576,177.953,442.576"/>
</g>
</svg>