<?xml version="1.0" encoding="UTF-8" standalone="no"?>
<!-- Uploaded to: SVG Repo, www.svgrepo.com, Generator: SVG Repo Mixer Tools -->

<svg
   fill="#000000"
   width="800px"
   height="800px"
   viewBox="0 0 32 32"
   version="1.1"
   id="svg6"
   sodipodi:docname="sign-language-svgrepo-com.svg"
   inkscape:version="1.2.2 (b0a8486541, 2022-12-01)"
   xmlns:inkscape="http://www.inkscape.org/namespaces/inkscape"
   xmlns:sodipodi="http://sodipodi.sourceforge.net/DTD/sodipodi-0.dtd"
   xmlns="http://www.w3.org/2000/svg"
   xmlns:svg="http://www.w3.org/2000/svg">
  <defs
     id="defs10">
    <linearGradient
       id="linearGradient978"
       inkscape:swatch="gradient">
      <stop
         style="stop-color:#c83737;stop-opacity:1;"
         offset="0"
         id="stop974" />
      <stop
         style="stop-color:#c83737;stop-opacity:0;"
         offset="1"
         id="stop976" />
    </linearGradient>
  </defs>
  <sodipodi:namedview
     id="namedview8"
     pagecolor="#ffffff"
     bordercolor="#666666"
     borderopacity="1.0"
     inkscape:showpageshadow="2"
     inkscape:pageopacity="0.0"
     inkscape:pagecheckerboard="0"
     inkscape:deskcolor="#d1d1d1"
     showgrid="false"
     inkscape:zoom="0.6375"
     inkscape:cx="360"
     inkscape:cy="149.01961"
     inkscape:window-width="1366"
     inkscape:window-height="712"
     inkscape:window-x="0"
     inkscape:window-y="0"
     inkscape:window-maximized="1"
     inkscape:current-layer="svg6" />
  <title
     id="title2">sign-language</title>
  <path
     d="m 14.753,19.926 c -0.179,-0.106 -0.396,-0.168 -0.626,-0.168 -0.46,0 -0.862,0.249 -1.079,0.619 l -0.003,0.006 c -0.83,1.422 -2.349,2.361 -4.087,2.361 -2.594,0 -4.699,-2.094 -4.717,-4.683 v -0.002 l 0.119,-1.07 c 0.488,-2.124 2.362,-3.685 4.601,-3.685 1.737,0 3.255,0.939 4.073,2.338 l 0.012,0.022 c 0.22,0.376 0.622,0.624 1.082,0.624 0.69,0 1.25,-0.56 1.25,-1.25 0,-0.231 -0.062,-0.446 -0.171,-0.632 l 0.003,0.006 c -0.932,-1.579 -2.402,-2.755 -4.153,-3.287 l -0.051,-0.013 5.803,-3.876 c 0.337,-0.227 0.555,-0.608 0.555,-1.039 0,-0.69 -0.559,-1.25 -1.25,-1.25 -0.259,0 -0.499,0.079 -0.699,0.213 L 15.419,5.157 8.89,9.518 13.347,2.688 c 0.127,-0.193 0.203,-0.429 0.203,-0.684 0,-0.691 -0.56,-1.25 -1.25,-1.25 -0.436,0 -0.82,0.223 -1.044,0.562 L 11.253,1.321 5.042,10.838 5.728,4.659 C 5.733,4.618 5.735,4.571 5.735,4.523 c 0,-0.69 -0.56,-1.25 -1.25,-1.25 -0.641,0 -1.17,0.483 -1.241,1.105 L 3.243,4.384 1.895,16.535 C 1.846,16.77 1.84,17.018 1.814,17.261 l -0.069,0.623 c -0.001,0.011 0.004,0.021 0.003,0.032 0,0.036 -0.011,0.069 -0.011,0.105 v 0.002 c 0,3.987 3.232,7.219 7.219,7.219 2.659,0 4.982,-1.437 6.234,-3.577 l 0.018,-0.034 c 0.106,-0.179 0.168,-0.395 0.168,-0.626 0,-0.46 -0.248,-0.861 -0.618,-1.078 l -0.006,-0.003 z m 15.503,-5.822 c 0.001,-0.011 -0.004,-0.021 -0.003,-0.032 0,-0.036 0.011,-0.069 0.011,-0.105 -10e-4,-3.989 -3.235,-7.223 -7.224,-7.223 -2.659,0 -4.983,1.437 -6.237,3.576 l -0.018,0.034 c -0.106,0.18 -0.168,0.396 -0.168,0.626 0,0.691 0.56,1.251 1.25,1.251 0.46,0 0.862,-0.248 1.079,-0.619 l 0.003,-0.006 c 0.831,-1.422 2.472511,-2.0566519 4.211511,-2.0566519 2.596,0 4.580489,1.7896519 4.599489,4.3806519 v 0.002 l -0.119,1.07 c -0.488,2.126 -2.363,3.689 -4.604,3.689 -1.738,0 -3.257,-0.94 -4.076,-2.34 l -0.012,-0.022 c -0.221,-0.374 -0.622,-0.621 -1.08,-0.621 -0.69,0 -1.25,0.56 -1.25,1.25 0,0.228 0.061,0.442 0.168,0.627 l -0.003,-0.006 c 0.932,1.581 2.404,2.759 4.158,3.291 l 0.051,0.013 -5.808,3.878 c -0.337,0.227 -0.555,0.608 -0.555,1.039 0,0.69 0.56,1.25 1.25,1.25 0.259,0 0.499,-0.079 0.699,-0.213 l -0.004,0.003 6.538,-4.366 -4.462,6.839 c -0.127,0.192 -0.202,0.428 -0.202,0.682 0,0.691 0.56,1.25 1.25,1.25 0.436,0 0.819,-0.223 1.043,-0.56 l 0.003,-0.005 6.216,-9.527 -0.687,6.185 c -0.005,0.042 -0.008,0.09 -0.008,0.139 0,0.641 0.483,1.17 1.105,1.241 l 0.006,0.001 c 0.04,0.005 0.086,0.008 0.133,0.008 h 0.008 v 0 c 0.641,0 1.169,-0.484 1.24,-1.106 l 0.001,-0.006 1.35,-12.158 c 0.036,-0.207 0.065,-0.46 0.081,-0.717 l 10e-4,-0.021 z"
     id="path4"
     style="fill:#800000;fill-opacity:1"
     sodipodi:nodetypes="csccscccsccsscccccssccccssccccssccccccsssccsccccccsccssccscccsccsscccccssccccssccccsccscscccccc" />
</svg>
